<svg xmlns="http://www.w3.org/2000/svg" viewBox="0 0 1200 720" role="img" aria-labelledby="title desc">
  <title id="title">Abstract knowledge garden</title><desc id="desc">Layered pages and leaves in coral, teal, and cream.</desc>
  <rect width="1200" height="720" fill="#192936"/><circle cx="1010" cy="110" r="250" fill="#244355"/>
  <path d="M0 590C220 450 380 650 620 505s397-72 580-184v399H0Z" fill="#f0d9bc"/>
  <rect x="215" y="140" width="440" height="390" rx="18" fill="#fff9ef" transform="rotate(-6 215 140)"/>
  <rect x="340" y="168" width="440" height="390" rx="18" fill="#f8efe2" transform="rotate(5 340 168)"/>
  <path d="M760 440c-14-151 75-241 183-280-1 115-50 231-183 280Z" fill="#47a09b"/>
  <path d="M755 441c40-102 122-138 218-126-46 87-118 147-218 126Z" fill="#e8734f"/>
  <path d="M760 445c39-119 93-194 174-254" fill="none" stroke="#fff9ef" stroke-width="12" stroke-linecap="round"/>
</svg>
